<mxfile host="1b0bd19f-c5eb-46a4-9228-1c2600e7c8ee" modified="2020-09-24T06:46:26.634Z" agent="5.0 (Windows NT 10.0; Win64; x64) AppleWebKit/537.36 (KHTML, like Gecko) Code/1.49.1 Chrome/83.0.4103.122 Electron/9.2.1 Safari/537.36" etag="x_mTCVnHeALyJElwGMwk" version="13.1.3">
    <diagram id="6hGFLwfOUW9BJ-s0fimq" name="Page-1">
        <mxGraphModel dx="663" dy="792" grid="1" gridSize="10" guides="0" tooltips="1" connect="1" arrows="1" fold="1" page="1" pageScale="1" pageWidth="400" pageHeight="400" math="0" shadow="0">
            <root>
                <mxCell id="0"/>
                <mxCell id="1" parent="0"/>
                <mxCell id="101" style="edgeStyle=orthogonalEdgeStyle;rounded=0;orthogonalLoop=1;jettySize=auto;html=1;strokeWidth=3;" parent="1" edge="1">
                    <mxGeometry relative="1" as="geometry">
                        <mxPoint x="110" y="190" as="sourcePoint"/>
                        <mxPoint x="300" y="190" as="targetPoint"/>
                        <Array as="points">
                            <mxPoint x="140" y="190"/>
                            <mxPoint x="140" y="190"/>
                        </Array>
                    </mxGeometry>
                </mxCell>
                <mxCell id="103" style="edgeStyle=orthogonalEdgeStyle;rounded=0;orthogonalLoop=1;jettySize=auto;html=1;strokeWidth=3;" edge="1" parent="1">
                    <mxGeometry relative="1" as="geometry">
                        <mxPoint x="200" y="290" as="sourcePoint"/>
                        <mxPoint x="200" y="90" as="targetPoint"/>
                        <Array as="points">
                            <mxPoint x="200" y="190"/>
                        </Array>
                    </mxGeometry>
                </mxCell>
                <mxCell id="104" value="&lt;font face=&quot;微軟正黑體&quot;&gt;&lt;span style=&quot;font-size: 16px&quot;&gt;&lt;b&gt;開放性&lt;br&gt;問題&lt;/b&gt;&lt;/span&gt;&lt;/font&gt;" style="text;html=1;align=center;verticalAlign=middle;resizable=0;points=[];autosize=1;" vertex="1" parent="1">
                    <mxGeometry x="170" y="40" width="60" height="40" as="geometry"/>
                </mxCell>
                <mxCell id="105" value="&lt;font face=&quot;微軟正黑體&quot;&gt;&lt;span style=&quot;font-size: 16px&quot;&gt;&lt;b&gt;封閉性&lt;br&gt;問題&lt;/b&gt;&lt;/span&gt;&lt;/font&gt;" style="text;html=1;align=center;verticalAlign=middle;resizable=0;points=[];autosize=1;" vertex="1" parent="1">
                    <mxGeometry x="170" y="300" width="60" height="40" as="geometry"/>
                </mxCell>
                <mxCell id="106" value="&lt;font face=&quot;微軟正黑體&quot;&gt;&lt;span style=&quot;font-size: 16px&quot;&gt;&lt;b&gt;開放性&lt;br&gt;解答&lt;/b&gt;&lt;/span&gt;&lt;/font&gt;" style="text;html=1;align=center;verticalAlign=middle;resizable=0;points=[];autosize=1;" vertex="1" parent="1">
                    <mxGeometry x="310" y="170" width="60" height="40" as="geometry"/>
                </mxCell>
                <mxCell id="107" value="&lt;font face=&quot;微軟正黑體&quot;&gt;&lt;span style=&quot;font-size: 16px&quot;&gt;&lt;b&gt;封閉性&lt;br&gt;解答&lt;/b&gt;&lt;/span&gt;&lt;/font&gt;" style="text;html=1;align=center;verticalAlign=middle;resizable=0;points=[];autosize=1;" vertex="1" parent="1">
                    <mxGeometry x="50" y="170" width="60" height="40" as="geometry"/>
                </mxCell>
            </root>
        </mxGraphModel>
    </diagram>
</mxfile>